<svg xmlns="http://www.w3.org/2000/svg" width="893.685" height="850.298" viewBox="0 0 893.685 850.298">
  <g>
    <path d="M644.472,634.256c-4.089,6.669-8.641,13.081-13.237,19.4q-4.071,5.6-8.305,11.082l5.855-7.578a448.652,448.652,0,0,1-54.644,59.391q-9.754,8.773-20.132,16.819l7.578-5.855c-17.378,13.393-36.142,25.087-56.38,33.651l8.944-3.774a178.167,178.167,0,0,1-44.884,12.529l9.954-1.337a156.169,156.169,0,0,1-41.121-.066l9.954,1.338A194.3,194.3,0,0,1,399.043,756.1l8.944,3.774a283.2,283.2,0,0,1-52.1-29.365q-6.911-4.854-13.587-10.028l7.578,5.855a449.439,449.439,0,0,1-42.924-38.084q-16.545-16.6-31.575-34.622-6.079-7.281-11.888-14.784l5.855,7.578c-3.082-3.992-6.151-8.011-9.012-12.166a28.3,28.3,0,0,0-9.643-10.5,28.2,28.2,0,0,0-12.733-6.7,28.35,28.35,0,0,0-14.93-.669,27.869,27.869,0,0,0-13.921,4.443c-8,5.154-15.032,12.829-17.207,22.376-2.142,9.408-1.9,20.607,3.775,28.851C201.1,679.92,207.1,687.443,213,694.94q15.173,19.3,32.117,37.114a463.125,463.125,0,0,0,48.794,44.867c21.434,16.921,43.717,32.636,68.561,44.185,13.771,6.4,27.97,12.236,42.641,16.249a178.965,178.965,0,0,0,18.049,3.966,257.108,257.108,0,0,0,27.249,3.264c15.158.859,30.328-.822,45.247-3.459a176.875,176.875,0,0,0,33.887-9.68,262.172,262.172,0,0,0,69-38.617,439.126,439.126,0,0,0,55.626-50.086A567.966,567.966,0,0,0,693.144,695.2c5.341-7.2,10.541-14.529,15.334-22.106.219-.347.439-.694.654-1.044a27.869,27.869,0,0,0,4.443-13.921A38.465,38.465,0,0,0,695.7,620.824c-8.689-4.591-19.216-6.892-28.85-3.774a39.79,39.79,0,0,0-22.377,17.206Z"/>
    <path d="M605.531,462.1a196.828,196.828,0,0,1-1.685,25.491L605.2,477.5a191.9,191.9,0,0,1-13.23,48.644l3.824-9.062a192.923,192.923,0,0,1-24.843,42.55l5.931-7.677a194.157,194.157,0,0,1-34.616,34.616l7.677-5.931a192.845,192.845,0,0,1-42.55,24.843l9.061-3.824a191.847,191.847,0,0,1-48.643,13.23l10.084-1.355a195.015,195.015,0,0,1-50.983,0L437,614.891a191.855,191.855,0,0,1-48.644-13.23l9.061,3.824a192.861,192.861,0,0,1-42.549-24.843l7.677,5.931a194.091,194.091,0,0,1-34.616-34.616l5.931,7.677a192.845,192.845,0,0,1-24.843-42.55l3.824,9.062a191.855,191.855,0,0,1-13.23-48.644l1.355,10.084a195.015,195.015,0,0,1,0-50.983l-1.355,10.084a191.836,191.836,0,0,1,13.23-48.643l-3.824,9.061a192.845,192.845,0,0,1,24.843-42.55l-5.931,7.677a194.124,194.124,0,0,1,34.616-34.616l-7.677,5.931A192.939,192.939,0,0,1,397.414,318.7l-9.061,3.824A191.9,191.9,0,0,1,437,309.3l-10.084,1.355a195.015,195.015,0,0,1,50.983,0L467.812,309.3a191.889,191.889,0,0,1,48.643,13.23l-9.061-3.824a192.923,192.923,0,0,1,42.55,24.843l-7.677-5.931a194.189,194.189,0,0,1,34.616,34.616l-5.931-7.677a192.923,192.923,0,0,1,24.843,42.55l-3.824-9.061a191.877,191.877,0,0,1,13.23,48.643L603.846,436.6a196.844,196.844,0,0,1,1.685,25.492,42.2,42.2,0,0,0,11.11,26.821,42.2,42.2,0,0,0,26.822,11.11l10.084-1.355a37.886,37.886,0,0,0,16.738-9.755c6.807-7.415,11.124-16.549,11.11-26.821-.019-13.512-1.606-26.913-3.723-40.248a190.072,190.072,0,0,0-6.94-28.912,255.3,255.3,0,0,0-14.852-35.852,191.2,191.2,0,0,0-14.94-24.773,258.019,258.019,0,0,0-24.16-29.636c-8.9-9.233-18.771-17.151-28.944-24.939-18-13.781-38.262-23.829-59.506-31.628a189.8,189.8,0,0,0-28.484-8,257.7,257.7,0,0,0-39.914-4.86A193.4,193.4,0,0,0,429,234.523c-13.137,1.6-26.131,3.541-38.877,7.153a254.215,254.215,0,0,0-36.343,13.872,190.623,190.623,0,0,0-25.358,14.041c-18.678,12.281-36.151,27.009-50.39,44.3a257.477,257.477,0,0,0-22.285,30.827c-6.668,11.1-11.835,22.836-16.747,34.806-8.825,21.5-13.213,44.474-15.009,67.593a193.79,193.79,0,0,0,.085,31.022,257.352,257.352,0,0,0,6.072,39.254,191.5,191.5,0,0,0,9.24,28.221c4.931,11.878,10.076,23.5,16.749,34.512a257.227,257.227,0,0,0,22.534,30.953,192.336,192.336,0,0,0,20.193,20.835,258.4,258.4,0,0,0,30.189,23.1,190.725,190.725,0,0,0,25.65,14.048,254.065,254.065,0,0,0,36.164,13.661c12.833,3.58,25.959,5.527,39.18,7.069,23.5,2.742,47.423.821,70.563-3.865a189.728,189.728,0,0,0,28.676-8.2,256.391,256.391,0,0,0,35.045-15.823c11.245-6.259,21.426-13.808,31.578-21.688a195.227,195.227,0,0,0,21.564-19.425,258.766,258.766,0,0,0,23.9-29.527A191.163,191.163,0,0,0,656.332,566.2c10.181-20.468,18.037-42.25,21.5-64.895,1.991-13.017,3.543-26.036,3.561-39.212a42.2,42.2,0,0,0-11.11-26.822,42.2,42.2,0,0,0-26.822-11.11l-10.084,1.355a37.9,37.9,0,0,0-16.738,9.755C609.823,442.7,605.546,451.812,605.531,462.1Z"/>
    <path d="M223.414,42.907V440.07c0,5.366-.024,10.733,0,16.1,0,.235,0,.469,0,.7A42.2,42.2,0,0,0,234.523,483.7a28.434,28.434,0,0,0,12.208,7.843,28.565,28.565,0,0,0,14.614,3.267l10.084-1.355a37.9,37.9,0,0,0,16.738-9.755c6.813-7.422,11.11-16.544,11.11-26.822V59.711c0-5.367.024-10.734,0-16.1,0-.235,0-.47,0-.7a28.569,28.569,0,0,0-3.267-14.615,28.437,28.437,0,0,0-7.843-12.207A28.428,28.428,0,0,0,275.96,8.242a28.569,28.569,0,0,0-14.615-3.267L251.262,6.33a37.9,37.9,0,0,0-16.739,9.755c-6.812,7.421-11.109,16.544-11.109,26.822Z"/>
  </g>
</svg>
