<?xml version="1.0" encoding="utf-8"?>
<!-- Generator: Adobe Illustrator 26.0.1, SVG Export Plug-In . SVG Version: 6.00 Build 0)  -->
<svg version="1.1" id="Layer_1" xmlns="http://www.w3.org/2000/svg" xmlns:xlink="http://www.w3.org/1999/xlink" x="0px" y="0px"
	 viewBox="0 0 40 16" style="enable-background:new 0 0 40 16;" xml:space="preserve">
<style type="text/css">
	.st0{clip-path:url(#SVGID_00000075150938779797683530000007356940648860860340_);}
	.st1{fill:#FF6E30;}
</style>
<g>
	<defs>
		<rect id="SVGID_1_" x="-32.2" y="-3.5" width="24" height="24"/>
	</defs>
	<clipPath id="SVGID_00000176753546861527884940000011382697131081823915_">
		<use xlink:href="#SVGID_1_"  style="overflow:visible;"/>
	</clipPath>
	<g style="clip-path:url(#SVGID_00000176753546861527884940000011382697131081823915_);">
		<path class="st1" d="M-19.4-2.1l3.1,6.3l7,1c0.2,0,0.3,0.1,0.4,0.2c0.1,0.1,0.2,0.2,0.3,0.4c0,0.1,0.1,0.3,0,0.5
			c0,0.2-0.1,0.3-0.2,0.4l-5,4.9l1.2,6.9c0,0.2,0,0.3,0,0.5c-0.1,0.1-0.2,0.3-0.3,0.4c-0.1,0.1-0.3,0.1-0.4,0.2
			c-0.2,0-0.3,0-0.4-0.1l-6.2-3.3l-6.2,3.3c-0.1,0.1-0.3,0.1-0.4,0.1c-0.2,0-0.3-0.1-0.4-0.2c-0.1-0.1-0.2-0.2-0.3-0.4
			c-0.1-0.1-0.1-0.3,0-0.5l1.2-6.9l-5-4.9c-0.1-0.1-0.2-0.2-0.2-0.4c0-0.2,0-0.3,0-0.5c0-0.1,0.1-0.3,0.3-0.4
			c0.1-0.1,0.3-0.2,0.4-0.2l7-1l3.1-6.3c0.1-0.1,0.2-0.3,0.3-0.3c0.1-0.1,0.3-0.1,0.4-0.1c0.2,0,0.3,0,0.4,0.1
			C-19.6-2.3-19.5-2.2-19.4-2.1z"/>
	</g>
</g>
<g>
	<g>
		<g>
			<path d="M9.4,8.7c1.9-1.9,3.8-3.8,5.7-5.7c0.3-0.3,0.5-0.5,0.8-0.8c0.4-0.4,0.4-1.2,0-1.6c-0.5-0.4-1.1-0.4-1.6,0
				c-1.9,1.9-3.8,3.8-5.7,5.7C8.3,6.6,8.1,6.9,7.8,7.1c-0.4,0.4-0.4,1.2,0,1.6C8.2,9.1,8.9,9.2,9.4,8.7L9.4,8.7z"/>
		</g>
	</g>
	<g>
		<g>
			<path d="M15.9,13.7c-1.9-1.9-3.8-3.8-5.7-5.7C9.9,7.8,9.6,7.5,9.4,7.3C9,6.9,8.2,6.8,7.8,7.3c-0.4,0.4-0.4,1.1,0,1.6
				c1.9,1.9,3.8,3.8,5.7,5.7c0.3,0.3,0.5,0.5,0.8,0.8c0.4,0.4,1.2,0.4,1.6,0C16.3,14.9,16.4,14.2,15.9,13.7L15.9,13.7z"/>
		</g>
	</g>
	<g>
		<g>
			<path d="M31.4,6.7c-6.3,0-12.6,0.1-18.9,0.1c-0.9,0-1.8,0-2.7,0c-1.4,0-1.5,2.3,0,2.2C16.1,9,22.4,9,28.7,9c0.9,0,1.8,0,2.7,0
				C32.9,8.9,32.9,6.7,31.4,6.7L31.4,6.7z"/>
		</g>
	</g>
</g>
</svg>
